<?xml version="1.0" encoding="UTF-8"?>
<svg xmlns="http://www.w3.org/2000/svg" xmlns:xlink="http://www.w3.org/1999/xlink" width="2000" height="2000" viewBox="0 0 2000 2000">
<defs>
<clipPath id="clip-0">

</clipPath>
<clipPath id="clip-1">
<path clip-rule="evenodd" d="M 471.433594 786.410156 C 406.265625 756.859375 129.488281 772.488281 80.429688 786.410156 C 45.820312 796.230469 177.074219 840.371094 177.074219 869.921875 C 177.074219 899.46875 45.238281 952.480469 80.429688 963.691406 C 129.488281 979.320312 406.265625 993.238281 471.433594 963.691406 C 499.449219 950.988281 499.449219 799.109375 471.433594 786.410156 Z M 471.433594 786.410156 "/>
</clipPath>
<clipPath id="clip-2">
<path clip-rule="nonzero" d="M 1478 769 L 1642 769 L 1642 963 L 1478 963 Z M 1478 769 "/>
</clipPath>
<clipPath id="clip-3">
<path clip-rule="evenodd" d="M 1499.148438 786.410156 C 1564.320312 756.859375 1841.101562 772.488281 1890.160156 786.410156 C 1924.761719 796.230469 1793.511719 840.371094 1793.511719 869.921875 C 1793.511719 899.46875 1925.351562 952.480469 1890.160156 963.691406 C 1841.101562 979.320312 1564.320312 993.238281 1499.148438 963.691406 C 1471.140625 950.988281 1471.140625 799.109375 1499.148438 786.410156 Z M 1499.148438 786.410156 "/>
</clipPath>
</defs>
<path fill-rule="evenodd" fill="rgb(71.09375%, 28.196716%, 21.801758%)" fill-opacity="1" d="M 471.433594 786.410156 C 406.265625 756.859375 129.488281 772.488281 80.429688 786.410156 C 45.820312 796.230469 177.074219 840.371094 177.074219 869.921875 C 177.074219 899.46875 45.238281 952.480469 80.429688 963.691406 C 129.488281 979.320312 406.265625 993.238281 471.433594 963.691406 C 499.449219 950.988281 499.449219 799.109375 471.433594 786.410156 "/>
<g clip-path="url(#clip-0)">
<g clip-path="url(#clip-1)">
<path fill-rule="evenodd" fill="rgb(59.568787%, 17.30957%, 11.108398%)" fill-opacity="1" d="M 329.285156 843.339844 C 355.785156 813.851562 394.238281 793.179688 468.183594 784.539062 C 520.761719 778.398438 498.367188 769.878906 529.28125 769.609375 C 548.867188 769.441406 558.230469 758.519531 572.160156 771.191406 C 666.164062 856.699219 576.585938 1001.285156 460.847656 952.101562 C 437.378906 942.121094 414.921875 929.101562 395.621094 912.351562 C 381.160156 899.808594 321.691406 851.789062 329.285156 843.339844 "/>
</g>
</g>
<path fill-rule="evenodd" fill="rgb(71.09375%, 28.196716%, 21.801758%)" fill-opacity="1" d="M 1499.148438 786.410156 C 1564.320312 756.859375 1841.101562 772.488281 1890.160156 786.410156 C 1924.761719 796.230469 1793.511719 840.371094 1793.511719 869.921875 C 1793.511719 899.46875 1925.351562 952.480469 1890.160156 963.691406 C 1841.101562 979.320312 1564.320312 993.238281 1499.148438 963.691406 C 1471.140625 950.988281 1471.140625 799.109375 1499.148438 786.410156 "/>
<g clip-path="url(#clip-2)">
<g clip-path="url(#clip-3)">
<path fill-rule="evenodd" fill="rgb(59.568787%, 17.30957%, 11.108398%)" fill-opacity="1" d="M 1641.300781 843.339844 C 1614.800781 813.851562 1576.351562 793.179688 1502.398438 784.539062 C 1449.820312 778.398438 1472.21875 769.878906 1441.300781 769.609375 C 1421.71875 769.441406 1412.359375 758.519531 1398.429688 771.191406 C 1304.421875 856.699219 1394 1001.285156 1509.738281 952.101562 C 1533.210938 942.121094 1555.660156 929.101562 1574.96875 912.351562 C 1589.429688 899.808594 1648.890625 851.789062 1641.300781 843.339844 "/>
</g>
</g>
<path fill-rule="evenodd" fill="rgb(81.834412%, 38.890076%, 32.493591%)" fill-opacity="1" d="M 1641.898438 843.738281 L 325.964844 843.738281 L 325.964844 1130.109375 L 1641.898438 1130.109375 L 1641.898438 843.738281 "/>
</svg>
